<?xml version="1.0" encoding="UTF-8"?>
<svg viewBox="0 0 256 256" fill="#f1502f" stroke="#f1502f" version="1.1" xmlns="http://www.w3.org/2000/svg" xmlns:xlink="http://www.w3.org/1999/xlink">
  <g stroke="none">
    <path d="M223.4731 84.7310 L203.6492 79.7217 C223.3197 114.0190 220.1976 158.9589 195.0538 187.7672 C177.8738 207.4548 152.3803 218.0000 126.7476 218.0000 C111.8333 218.0000 96.8726 214.4296 83.4711 207.0148 L86.9000 200.6891 C120.4822 219.2731 164.6792 211.6671 189.7018 182.9958 C212.9546 156.3586 215.7091 114.6609 197.2624 82.9350 L192.1173 103.7442 185.1954 101.9951 L192.3314 73.1435 C192.8095 71.2141 194.7434 70.0239 196.6558 70.5216 L225.2000 77.7345 L223.4731 84.7310Z" />
    <path d="M58.7305 169.7133 L63.8827 148.8789 L70.8046 150.6280 L63.6686 179.4796 C63.2654 181.1205 61.8097 182.2132 60.2112 182.2132 C59.9257 182.2132 59.6332 182.1808 59.3442 182.1050 L30.8000 174.8922 L32.5269 167.8956 L52.3187 172.8942 C32.8017 139.1775 35.9879 97.4113 61.2531 68.4623 C88.8196 36.8807 135.6213 28.7878 172.5325 49.2183 L169.1036 55.5440 C135.0897 36.7220 91.9808 44.1585 66.6051 73.2337 C43.2952 99.9430 40.4658 138.5933 58.7305 169.7133 L58.7305 169.7133Z" />
  </g>
  <g stroke-width="7.2" stroke-linecap="round">
    <g fill="none">
      <path d="M75.1501 97.4907 L180.8450 158.5094" />
      <path d="M92.7659 107.6605 L128.0000 87.3209 L180.8438 117.8303" />
      <path d="M75.1488 138.1698 L128.0000 168.6791 L163.2292 148.3396" />
    </g>
    <g fill="#ffffff">
      <circle cx="92.7659" cy="107.6605" r="8.82" />
      <circle cx="163.2292" cy="148.3396" r="8.82" />
      <circle cx="128.0000" cy="87.3209" r="8.82" />
      <circle cx="163.2292" cy="107.6605" r="8.82" />
      <circle cx="92.7659" cy="148.3396" r="8.82" />
      <circle cx="128.0000" cy="168.6791" r="8.82" />
    </g>
  </g>
</svg>
